<?xml version="1.0" encoding="UTF-8" standalone="no"?>
<!DOCTYPE svg PUBLIC "-//W3C//DTD SVG 1.1//EN"
 "http://www.w3.org/Graphics/SVG/1.1/DTD/svg11.dtd">
<!-- Generated by graphviz version 2.43.0 (0)
 -->
<!-- Title: Astrology Pages: 1 -->
<svg width="378pt" height="95pt"
 viewBox="0.00 0.00 378.00 95.00" xmlns="http://www.w3.org/2000/svg" xmlns:xlink="http://www.w3.org/1999/xlink">
<g id="graph0" class="graph" transform="scale(1 1) rotate(0) translate(4 91)">
<title>Astrology</title>
<!-- Node4 -->
<g id="node1" class="node">
<title>Node4</title>
<g id="a_node1"><a xlink:title="[class] [constructor]">
<polygon fill="#bfbfbf" stroke="black" points="180.5,-0.5 180.5,-19.5 243.5,-19.5 243.5,-0.5 180.5,-0.5"/>
<text text-anchor="middle" x="212" y="-7.5" font-family="Helvetica,sans-Serif" font-size="10.00">Astrology</text>
</a>
</g>
</g>
<!-- Node5 -->
<g id="node2" class="node">
<title>Node5</title>
<g id="a_node2"><a xlink:title=" ">
<polygon fill="none" stroke="#bfbfbf" points="0,-56.5 0,-86.5 134,-86.5 134,-56.5 0,-56.5"/>
<text text-anchor="start" x="8" y="-74.5" font-family="Helvetica,sans-Serif" font-size="10.00">FiftyOnePipelineEngines</text>
<text text-anchor="middle" x="67" y="-63.5" font-family="Helvetica,sans-Serif" font-size="10.00">::Engine</text>
</a>
</g>
</g>
<!-- Node5&#45;&gt;Node4 -->
<g id="edge1" class="edge">
<title>Node5&#45;&gt;Node4</title>
<path fill="none" stroke="midnightblue" d="M110.83,-52.52C137.36,-41.63 170,-28.23 190.9,-19.66"/>
<polygon fill="midnightblue" stroke="midnightblue" points="109.29,-49.37 101.36,-56.4 111.94,-55.84 109.29,-49.37"/>
</g>
<!-- Node6 -->
<g id="node3" class="node">
<title>Node6</title>
<g id="a_node3"><a xlink:title=" ">
<polygon fill="none" stroke="#bfbfbf" points="152.5,-56.5 152.5,-86.5 271.5,-86.5 271.5,-56.5 152.5,-56.5"/>
<text text-anchor="start" x="160.5" y="-74.5" font-family="Helvetica,sans-Serif" font-size="10.00">FiftyOnePipelineCore</text>
<text text-anchor="middle" x="212" y="-63.5" font-family="Helvetica,sans-Serif" font-size="10.00">::FlowElement</text>
</a>
</g>
</g>
<!-- Node6&#45;&gt;Node4 -->
<g id="edge2" class="edge">
<title>Node6&#45;&gt;Node4</title>
<path fill="none" stroke="midnightblue" d="M212,-46.29C212,-36.86 212,-26.65 212,-19.66"/>
<polygon fill="midnightblue" stroke="midnightblue" points="208.5,-46.4 212,-56.4 215.5,-46.4 208.5,-46.4"/>
</g>
<!-- Node7 -->
<g id="node4" class="node">
<title>Node7</title>
<g id="a_node4"><a xlink:title=" ">
<polygon fill="none" stroke="#bfbfbf" points="290,-62 290,-81 370,-81 370,-62 290,-62"/>
<text text-anchor="middle" x="330" y="-69" font-family="Helvetica,sans-Serif" font-size="10.00">FlowElement</text>
</a>
</g>
</g>
<!-- Node7&#45;&gt;Node4 -->
<g id="edge3" class="edge">
<title>Node7&#45;&gt;Node4</title>
<path fill="none" stroke="midnightblue" d="M303.95,-57.37C281.08,-45.83 248.49,-29.4 228.88,-19.51"/>
<polygon fill="midnightblue" stroke="midnightblue" points="302.59,-60.6 313.09,-61.98 305.74,-54.35 302.59,-60.6"/>
</g>
</g>
</svg>
