<?xml version="1.0" encoding="UTF-8" standalone="no"?>
<!DOCTYPE svg PUBLIC "-//W3C//DTD SVG 1.1//EN"
 "http://www.w3.org/Graphics/SVG/1.1/DTD/svg11.dtd">
<!-- Generated by graphviz version 2.43.0 (0)
 -->
<!-- Title: FlowElement Pages: 1 -->
<svg width="417pt" height="332pt"
 viewBox="0.00 0.00 417.00 332.00" xmlns="http://www.w3.org/2000/svg" xmlns:xlink="http://www.w3.org/1999/xlink">
<g id="graph0" class="graph" transform="scale(1 1) rotate(0) translate(4 328)">
<title>FlowElement</title>
<!-- Node0 -->
<g id="node1" class="node">
<title>Node0</title>
<g id="a_node1"><a xlink:title="A FlowElement is placed inside a pipeline It receives Evidence via a FlowData object It uses this to ...">
<polygon fill="#bfbfbf" stroke="black" points="0,-152.5 0,-171.5 80,-171.5 80,-152.5 0,-152.5"/>
<text text-anchor="middle" x="40" y="-159.5" font-family="Helvetica,sans-Serif" font-size="10.00">FlowElement</text>
</a>
</g>
</g>
<!-- Node1 -->
<g id="node2" class="node">
<title>Node1</title>
<g id="a_node2"><a xlink:href="class_async.html" target="_top" xlink:title=" ">
<polygon fill="none" stroke="black" points="163,-304.5 163,-323.5 209,-323.5 209,-304.5 163,-304.5"/>
<text text-anchor="middle" x="186" y="-311.5" font-family="Helvetica,sans-Serif" font-size="10.00">Async</text>
</a>
</g>
</g>
<!-- Node0&#45;&gt;Node1 -->
<g id="edge1" class="edge">
<title>Node0&#45;&gt;Node1</title>
<path fill="none" stroke="midnightblue" d="M46.68,-181.58C56.16,-210.74 78.02,-265.34 116,-295 129.42,-305.48 148.23,-310.18 162.83,-312.29"/>
<polygon fill="midnightblue" stroke="midnightblue" points="49.94,-180.27 43.64,-171.75 43.25,-182.34 49.94,-180.27"/>
</g>
<!-- Node2 -->
<g id="node3" class="node">
<title>Node2</title>
<g id="a_node3"><a xlink:href="class_engine.html" target="_top" xlink:title="An Engine is an extension of a FlowElement which adds options such as restricting to a subset of prop...">
<polygon fill="none" stroke="black" points="161,-266.5 161,-285.5 211,-285.5 211,-266.5 161,-266.5"/>
<text text-anchor="middle" x="186" y="-273.5" font-family="Helvetica,sans-Serif" font-size="10.00">Engine</text>
</a>
</g>
</g>
<!-- Node0&#45;&gt;Node2 -->
<g id="edge2" class="edge">
<title>Node0&#45;&gt;Node2</title>
<path fill="none" stroke="midnightblue" d="M50.82,-180.62C63.17,-202.22 86.39,-237.36 116,-257 129.36,-265.86 146.77,-270.61 160.77,-273.15"/>
<polygon fill="midnightblue" stroke="midnightblue" points="53.83,-178.82 45.93,-171.75 47.7,-182.2 53.83,-178.82"/>
</g>
<!-- Node6 -->
<g id="node7" class="node">
<title>Node6</title>
<g id="a_node7"><a xlink:href="class_java_script_builder_element.html" target="_top" xlink:title="The JavaScriptBuilder aggregates JavaScript properties from FlowElements in the pipeline.">
<polygon fill="none" stroke="black" points="116,-228.5 116,-247.5 256,-247.5 256,-228.5 116,-228.5"/>
<text text-anchor="middle" x="186" y="-235.5" font-family="Helvetica,sans-Serif" font-size="10.00">JavaScriptBuilderElement</text>
</a>
</g>
</g>
<!-- Node0&#45;&gt;Node6 -->
<g id="edge6" class="edge">
<title>Node0&#45;&gt;Node6</title>
<path fill="none" stroke="midnightblue" d="M58.95,-178.81C73.37,-191.49 94.68,-208.45 116,-219 123.68,-222.8 132.24,-225.93 140.64,-228.48"/>
<polygon fill="midnightblue" stroke="midnightblue" points="61.07,-176.01 51.3,-171.92 56.39,-181.21 61.07,-176.01"/>
</g>
<!-- Node7 -->
<g id="node8" class="node">
<title>Node7</title>
<g id="a_node8"><a xlink:href="class_j_s_o_n_bundler_element.html" target="_top" xlink:title="The JSONBundler aggregates all properties from FlowElements into a JSON object It is used for retriev...">
<polygon fill="none" stroke="black" points="126.5,-190.5 126.5,-209.5 245.5,-209.5 245.5,-190.5 126.5,-190.5"/>
<text text-anchor="middle" x="186" y="-197.5" font-family="Helvetica,sans-Serif" font-size="10.00">JSONBundlerElement</text>
</a>
</g>
</g>
<!-- Node0&#45;&gt;Node7 -->
<g id="edge7" class="edge">
<title>Node0&#45;&gt;Node7</title>
<path fill="none" stroke="midnightblue" d="M87.17,-174.18C107.16,-179.46 130.22,-185.54 148.92,-190.48"/>
<polygon fill="midnightblue" stroke="midnightblue" points="87.9,-170.76 77.34,-171.59 86.11,-177.52 87.9,-170.76"/>
</g>
<!-- Node8 -->
<g id="node9" class="node">
<title>Node8</title>
<g id="a_node9"><a xlink:href="class_never_run.html" target="_top" xlink:title=" ">
<polygon fill="none" stroke="black" points="153.5,-152.5 153.5,-171.5 218.5,-171.5 218.5,-152.5 153.5,-152.5"/>
<text text-anchor="middle" x="186" y="-159.5" font-family="Helvetica,sans-Serif" font-size="10.00">NeverRun</text>
</a>
</g>
</g>
<!-- Node0&#45;&gt;Node8 -->
<g id="edge8" class="edge">
<title>Node0&#45;&gt;Node8</title>
<path fill="none" stroke="midnightblue" d="M90.63,-162C111.45,-162 135.05,-162 153.44,-162"/>
<polygon fill="midnightblue" stroke="midnightblue" points="90.35,-158.5 80.35,-162 90.35,-165.5 90.35,-158.5"/>
</g>
<!-- Node9 -->
<g id="node10" class="node">
<title>Node9</title>
<g id="a_node10"><a xlink:href="class_sequence_element.html" target="_top" xlink:title="The SequenceElement stores session data regarding requests for client side JavaScript from the JavaSc...">
<polygon fill="none" stroke="black" points="134,-114.5 134,-133.5 238,-133.5 238,-114.5 134,-114.5"/>
<text text-anchor="middle" x="186" y="-121.5" font-family="Helvetica,sans-Serif" font-size="10.00">SequenceElement</text>
</a>
</g>
</g>
<!-- Node0&#45;&gt;Node9 -->
<g id="edge9" class="edge">
<title>Node0&#45;&gt;Node9</title>
<path fill="none" stroke="midnightblue" d="M87.17,-149.82C107.16,-144.54 130.22,-138.46 148.92,-133.52"/>
<polygon fill="midnightblue" stroke="midnightblue" points="86.11,-146.48 77.34,-152.41 87.9,-153.24 86.11,-146.48"/>
</g>
<!-- Node10 -->
<g id="node11" class="node">
<title>Node10</title>
<g id="a_node11"><a xlink:href="class_set_headers_element.html" target="_top" xlink:title="Set response headers element class.">
<polygon fill="none" stroke="black" points="129.5,-76.5 129.5,-95.5 242.5,-95.5 242.5,-76.5 129.5,-76.5"/>
<text text-anchor="middle" x="186" y="-83.5" font-family="Helvetica,sans-Serif" font-size="10.00">SetHeadersElement</text>
</a>
</g>
</g>
<!-- Node0&#45;&gt;Node10 -->
<g id="edge10" class="edge">
<title>Node0&#45;&gt;Node10</title>
<path fill="none" stroke="midnightblue" d="M58.95,-145.19C73.37,-132.51 94.68,-115.55 116,-105 123.68,-101.2 132.24,-98.07 140.64,-95.52"/>
<polygon fill="midnightblue" stroke="midnightblue" points="56.39,-142.79 51.3,-152.08 61.07,-147.99 56.39,-142.79"/>
</g>
<!-- Node11 -->
<g id="node12" class="node">
<title>Node11</title>
<g id="a_node12"><a xlink:href="class_stop.html" target="_top" xlink:title=" ">
<polygon fill="none" stroke="black" points="167,-38.5 167,-57.5 205,-57.5 205,-38.5 167,-38.5"/>
<text text-anchor="middle" x="186" y="-45.5" font-family="Helvetica,sans-Serif" font-size="10.00">Stop</text>
</a>
</g>
</g>
<!-- Node0&#45;&gt;Node11 -->
<g id="edge11" class="edge">
<title>Node0&#45;&gt;Node11</title>
<path fill="none" stroke="midnightblue" d="M50.82,-143.38C63.17,-121.78 86.39,-86.64 116,-67 131.33,-56.84 151.99,-52.07 166.7,-49.86"/>
<polygon fill="midnightblue" stroke="midnightblue" points="47.7,-141.8 45.93,-152.25 53.83,-145.18 47.7,-141.8"/>
</g>
<!-- Node12 -->
<g id="node13" class="node">
<title>Node12</title>
<g id="a_node13"><a xlink:href="class_sync.html" target="_top" xlink:title=" ">
<polygon fill="none" stroke="black" points="166,-0.5 166,-19.5 206,-19.5 206,-0.5 166,-0.5"/>
<text text-anchor="middle" x="186" y="-7.5" font-family="Helvetica,sans-Serif" font-size="10.00">Sync</text>
</a>
</g>
</g>
<!-- Node0&#45;&gt;Node12 -->
<g id="edge12" class="edge">
<title>Node0&#45;&gt;Node12</title>
<path fill="none" stroke="midnightblue" d="M46.68,-142.42C56.16,-113.26 78.02,-58.66 116,-29 130.4,-17.76 151.01,-13.16 165.95,-11.29"/>
<polygon fill="midnightblue" stroke="midnightblue" points="43.25,-141.66 43.64,-152.25 49.94,-143.73 43.25,-141.66"/>
</g>
<!-- Node3 -->
<g id="node4" class="node">
<title>Node3</title>
<g id="a_node4"><a xlink:href="class_cloud_engine.html" target="_top" xlink:title="This is a template for all 51Degrees cloud engines.">
<polygon fill="none" stroke="black" points="312,-304.5 312,-323.5 389,-323.5 389,-304.5 312,-304.5"/>
<text text-anchor="middle" x="350.5" y="-311.5" font-family="Helvetica,sans-Serif" font-size="10.00">CloudEngine</text>
</a>
</g>
</g>
<!-- Node2&#45;&gt;Node3 -->
<g id="edge3" class="edge">
<title>Node2&#45;&gt;Node3</title>
<path fill="none" stroke="midnightblue" d="M221.29,-284.02C247.77,-290.21 284.39,-298.77 311.71,-305.16"/>
<polygon fill="midnightblue" stroke="midnightblue" points="221.86,-280.56 211.33,-281.69 220.27,-287.37 221.86,-280.56"/>
</g>
<!-- Node4 -->
<g id="node5" class="node">
<title>Node4</title>
<g id="a_node5"><a xlink:href="class_cloud_request_engine.html" target="_top" xlink:title=" ">
<polygon fill="none" stroke="black" points="292,-266.5 292,-285.5 409,-285.5 409,-266.5 292,-266.5"/>
<text text-anchor="middle" x="350.5" y="-273.5" font-family="Helvetica,sans-Serif" font-size="10.00">CloudRequestEngine</text>
</a>
</g>
</g>
<!-- Node2&#45;&gt;Node4 -->
<g id="edge4" class="edge">
<title>Node2&#45;&gt;Node4</title>
<path fill="none" stroke="midnightblue" d="M221.43,-276C241.9,-276 268.37,-276 291.94,-276"/>
<polygon fill="midnightblue" stroke="midnightblue" points="221.33,-272.5 211.33,-276 221.33,-279.5 221.33,-272.5"/>
</g>
<!-- Node5 -->
<g id="node6" class="node">
<title>Node5</title>
<g id="a_node6"><a xlink:href="class_share_usage.html" target="_top" xlink:title="The ShareUsage element sends usage data to 51Degrees in zipped batches.">
<polygon fill="none" stroke="black" points="313,-228.5 313,-247.5 388,-247.5 388,-228.5 313,-228.5"/>
<text text-anchor="middle" x="350.5" y="-235.5" font-family="Helvetica,sans-Serif" font-size="10.00">ShareUsage</text>
</a>
</g>
</g>
<!-- Node2&#45;&gt;Node5 -->
<g id="edge5" class="edge">
<title>Node2&#45;&gt;Node5</title>
<path fill="none" stroke="midnightblue" d="M221.08,-268.03C247.97,-261.74 285.42,-252.98 312.94,-246.55"/>
<polygon fill="midnightblue" stroke="midnightblue" points="220.27,-264.63 211.33,-270.31 221.86,-271.44 220.27,-264.63"/>
</g>
</g>
</svg>
