<?xml version="1.0" encoding="UTF-8" standalone="no"?>
<!DOCTYPE svg PUBLIC "-//W3C//DTD SVG 1.1//EN"
 "http://www.w3.org/Graphics/SVG/1.1/DTD/svg11.dtd">
<!-- Generated by graphviz version 2.43.0 (0)
 -->
<!-- Title: DataKeyedCache Pages: 1 -->
<svg width="172pt" height="140pt"
 viewBox="0.00 0.00 171.50 140.00" xmlns="http://www.w3.org/2000/svg" xmlns:xlink="http://www.w3.org/1999/xlink">
<g id="graph0" class="graph" transform="scale(1 1) rotate(0) translate(4 136)">
<title>DataKeyedCache</title>
<!-- Node0 -->
<g id="node1" class="node">
<title>Node0</title>
<g id="a_node1"><a xlink:title="A simple cache getter that takes a cache key and returns an element if it is found in the cache.">
<polygon fill="#bfbfbf" stroke="black" points="20.5,-112.5 20.5,-131.5 120.5,-131.5 120.5,-112.5 20.5,-112.5"/>
<text text-anchor="middle" x="70.5" y="-119.5" font-family="Helvetica,sans-Serif" font-size="10.00">DataKeyedCache</text>
</a>
</g>
</g>
<!-- Node1 -->
<g id="node2" class="node">
<title>Node1</title>
<g id="a_node2"><a xlink:href="class_l_r_ucache.html" target="_top" xlink:title="An instance of DataKeyed cache using a least recently used (LRU) method.">
<polygon fill="none" stroke="black" points="0,-56.5 0,-75.5 65,-75.5 65,-56.5 0,-56.5"/>
<text text-anchor="middle" x="32.5" y="-63.5" font-family="Helvetica,sans-Serif" font-size="10.00">LRUcache</text>
</a>
</g>
</g>
<!-- Node0&#45;&gt;Node1 -->
<g id="edge1" class="edge">
<title>Node0&#45;&gt;Node1</title>
<path fill="none" stroke="midnightblue" d="M58.44,-103.86C51.86,-94.5 43.99,-83.33 38.66,-75.75"/>
<polygon fill="midnightblue" stroke="midnightblue" points="55.61,-105.92 64.23,-112.08 61.33,-101.89 55.61,-105.92"/>
</g>
<!-- Node2 -->
<g id="node3" class="node">
<title>Node2</title>
<g id="a_node3"><a xlink:href="class_tracker.html" target="_top" xlink:title="A tracker is an instance of datakeyed cache which, if a result is found in the cache,...">
<polygon fill="none" stroke="black" points="83,-56.5 83,-75.5 134,-75.5 134,-56.5 83,-56.5"/>
<text text-anchor="middle" x="108.5" y="-63.5" font-family="Helvetica,sans-Serif" font-size="10.00">Tracker</text>
</a>
</g>
</g>
<!-- Node0&#45;&gt;Node2 -->
<g id="edge2" class="edge">
<title>Node0&#45;&gt;Node2</title>
<path fill="none" stroke="midnightblue" d="M82.56,-103.86C89.14,-94.5 97.01,-83.33 102.34,-75.75"/>
<polygon fill="midnightblue" stroke="midnightblue" points="79.67,-101.89 76.77,-112.08 85.39,-105.92 79.67,-101.89"/>
</g>
<!-- Node3 -->
<g id="node4" class="node">
<title>Node3</title>
<g id="a_node4"><a xlink:href="class_share_usage_tracker.html" target="_top" xlink:title="The ShareUsageTracker is used by the ShareUsageElement to determine whether to put evidence into a bu...">
<polygon fill="none" stroke="black" points="53.5,-0.5 53.5,-19.5 163.5,-19.5 163.5,-0.5 53.5,-0.5"/>
<text text-anchor="middle" x="108.5" y="-7.5" font-family="Helvetica,sans-Serif" font-size="10.00">ShareUsageTracker</text>
</a>
</g>
</g>
<!-- Node2&#45;&gt;Node3 -->
<g id="edge3" class="edge">
<title>Node2&#45;&gt;Node3</title>
<path fill="none" stroke="midnightblue" d="M108.5,-45.8C108.5,-36.91 108.5,-26.78 108.5,-19.75"/>
<polygon fill="midnightblue" stroke="midnightblue" points="105,-46.08 108.5,-56.08 112,-46.08 105,-46.08"/>
</g>
</g>
</svg>
