<?xml version="1.0" encoding="UTF-8" standalone="no"?>
<!DOCTYPE svg PUBLIC "-//W3C//DTD SVG 1.1//EN"
 "http://www.w3.org/Graphics/SVG/1.1/DTD/svg11.dtd">
<!-- Generated by graphviz version 2.43.0 (0)
 -->
<!-- Title: Engine Pages: 1 -->
<svg width="313pt" height="140pt"
 viewBox="0.00 0.00 313.00 140.00" xmlns="http://www.w3.org/2000/svg" xmlns:xlink="http://www.w3.org/1999/xlink">
<g id="graph0" class="graph" transform="scale(1 1) rotate(0) translate(4 136)">
<title>Engine</title>
<!-- Node0 -->
<g id="node1" class="node">
<title>Node0</title>
<g id="a_node1"><a xlink:title="An Engine is an extension of a FlowElement which adds options such as restricting to a subset of prop...">
<polygon fill="#bfbfbf" stroke="black" points="128.5,-56.5 128.5,-75.5 178.5,-75.5 178.5,-56.5 128.5,-56.5"/>
<text text-anchor="middle" x="153.5" y="-63.5" font-family="Helvetica,sans-Serif" font-size="10.00">Engine</text>
</a>
</g>
</g>
<!-- Node2 -->
<g id="node3" class="node">
<title>Node2</title>
<g id="a_node3"><a xlink:href="class_cloud_engine.html" target="_top" xlink:title="This is a template for all 51Degrees cloud engines.">
<polygon fill="none" stroke="black" points="0,-0.5 0,-19.5 77,-19.5 77,-0.5 0,-0.5"/>
<text text-anchor="middle" x="38.5" y="-7.5" font-family="Helvetica,sans-Serif" font-size="10.00">CloudEngine</text>
</a>
</g>
</g>
<!-- Node0&#45;&gt;Node2 -->
<g id="edge2" class="edge">
<title>Node0&#45;&gt;Node2</title>
<path fill="none" stroke="midnightblue" d="M126.02,-52.1C104.53,-42.01 75.28,-28.27 56.64,-19.52"/>
<polygon fill="midnightblue" stroke="midnightblue" points="124.74,-55.36 135.28,-56.44 127.71,-49.02 124.74,-55.36"/>
</g>
<!-- Node3 -->
<g id="node4" class="node">
<title>Node3</title>
<g id="a_node4"><a xlink:href="class_cloud_request_engine.html" target="_top" xlink:title=" ">
<polygon fill="none" stroke="black" points="95,-0.5 95,-19.5 212,-19.5 212,-0.5 95,-0.5"/>
<text text-anchor="middle" x="153.5" y="-7.5" font-family="Helvetica,sans-Serif" font-size="10.00">CloudRequestEngine</text>
</a>
</g>
</g>
<!-- Node0&#45;&gt;Node3 -->
<g id="edge3" class="edge">
<title>Node0&#45;&gt;Node3</title>
<path fill="none" stroke="midnightblue" d="M153.5,-45.8C153.5,-36.91 153.5,-26.78 153.5,-19.75"/>
<polygon fill="midnightblue" stroke="midnightblue" points="150,-46.08 153.5,-56.08 157,-46.08 150,-46.08"/>
</g>
<!-- Node4 -->
<g id="node5" class="node">
<title>Node4</title>
<g id="a_node5"><a xlink:href="class_share_usage.html" target="_top" xlink:title="The ShareUsage element sends usage data to 51Degrees in zipped batches.">
<polygon fill="none" stroke="black" points="230,-0.5 230,-19.5 305,-19.5 305,-0.5 230,-0.5"/>
<text text-anchor="middle" x="267.5" y="-7.5" font-family="Helvetica,sans-Serif" font-size="10.00">ShareUsage</text>
</a>
</g>
</g>
<!-- Node0&#45;&gt;Node4 -->
<g id="edge4" class="edge">
<title>Node0&#45;&gt;Node4</title>
<path fill="none" stroke="midnightblue" d="M180.74,-52.1C202.04,-42.01 231.04,-28.27 249.52,-19.52"/>
<polygon fill="midnightblue" stroke="midnightblue" points="179.1,-49 171.56,-56.44 182.1,-55.33 179.1,-49"/>
</g>
<!-- Node1 -->
<g id="node2" class="node">
<title>Node1</title>
<g id="a_node2"><a xlink:href="class_flow_element.html" target="_top" xlink:title="A FlowElement is placed inside a pipeline It receives Evidence via a FlowData object It uses this to ...">
<polygon fill="none" stroke="black" points="113.5,-112.5 113.5,-131.5 193.5,-131.5 193.5,-112.5 113.5,-112.5"/>
<text text-anchor="middle" x="153.5" y="-119.5" font-family="Helvetica,sans-Serif" font-size="10.00">FlowElement</text>
</a>
</g>
</g>
<!-- Node1&#45;&gt;Node0 -->
<g id="edge1" class="edge">
<title>Node1&#45;&gt;Node0</title>
<path fill="none" stroke="midnightblue" d="M153.5,-101.8C153.5,-92.91 153.5,-82.78 153.5,-75.75"/>
<polygon fill="midnightblue" stroke="midnightblue" points="150,-102.08 153.5,-112.08 157,-102.08 150,-102.08"/>
</g>
</g>
</svg>
