<?xml version="1.0" encoding="UTF-8" standalone="no"?>
<!DOCTYPE svg PUBLIC "-//W3C//DTD SVG 1.1//EN"
 "http://www.w3.org/Graphics/SVG/1.1/DTD/svg11.dtd">
<!-- Generated by graphviz version 2.43.0 (0)
 -->
<!-- Title: ShareUsage Pages: 1 -->
<svg width="88pt" height="140pt"
 viewBox="0.00 0.00 88.00 140.00" xmlns="http://www.w3.org/2000/svg" xmlns:xlink="http://www.w3.org/1999/xlink">
<g id="graph0" class="graph" transform="scale(1 1) rotate(0) translate(4 136)">
<title>ShareUsage</title>
<!-- Node3 -->
<g id="node1" class="node">
<title>Node3</title>
<g id="a_node1"><a xlink:title="The ShareUsage element sends usage data to 51Degrees in zipped batches.">
<polygon fill="#bfbfbf" stroke="black" points="2.5,-0.5 2.5,-19.5 77.5,-19.5 77.5,-0.5 2.5,-0.5"/>
<text text-anchor="middle" x="40" y="-7.5" font-family="Helvetica,sans-Serif" font-size="10.00">ShareUsage</text>
</a>
</g>
</g>
<!-- Node4 -->
<g id="node2" class="node">
<title>Node4</title>
<g id="a_node2"><a xlink:href="class_engine.html" target="_top" xlink:title="An Engine is an extension of a FlowElement which adds options such as restricting to a subset of prop...">
<polygon fill="none" stroke="black" points="15,-56.5 15,-75.5 65,-75.5 65,-56.5 15,-56.5"/>
<text text-anchor="middle" x="40" y="-63.5" font-family="Helvetica,sans-Serif" font-size="10.00">Engine</text>
</a>
</g>
</g>
<!-- Node4&#45;&gt;Node3 -->
<g id="edge1" class="edge">
<title>Node4&#45;&gt;Node3</title>
<path fill="none" stroke="midnightblue" d="M40,-45.8C40,-36.91 40,-26.78 40,-19.75"/>
<polygon fill="midnightblue" stroke="midnightblue" points="36.5,-46.08 40,-56.08 43.5,-46.08 36.5,-46.08"/>
</g>
<!-- Node5 -->
<g id="node3" class="node">
<title>Node5</title>
<g id="a_node3"><a xlink:href="class_flow_element.html" target="_top" xlink:title="A FlowElement is placed inside a pipeline It receives Evidence via a FlowData object It uses this to ...">
<polygon fill="none" stroke="black" points="0,-112.5 0,-131.5 80,-131.5 80,-112.5 0,-112.5"/>
<text text-anchor="middle" x="40" y="-119.5" font-family="Helvetica,sans-Serif" font-size="10.00">FlowElement</text>
</a>
</g>
</g>
<!-- Node5&#45;&gt;Node4 -->
<g id="edge2" class="edge">
<title>Node5&#45;&gt;Node4</title>
<path fill="none" stroke="midnightblue" d="M40,-101.8C40,-92.91 40,-82.78 40,-75.75"/>
<polygon fill="midnightblue" stroke="midnightblue" points="36.5,-102.08 40,-112.08 43.5,-102.08 36.5,-102.08"/>
</g>
</g>
</svg>
