<?xml version="1.0" encoding="UTF-8" standalone="no"?>
<!DOCTYPE svg PUBLIC "-//W3C//DTD SVG 1.1//EN"
 "http://www.w3.org/Graphics/SVG/1.1/DTD/svg11.dtd">
<!-- Generated by graphviz version 2.43.0 (0)
 -->
<!-- Title: ElementData Pages: 1 -->
<svg width="255pt" height="140pt"
 viewBox="0.00 0.00 255.00 140.00" xmlns="http://www.w3.org/2000/svg" xmlns:xlink="http://www.w3.org/1999/xlink">
<g id="graph0" class="graph" transform="scale(1 1) rotate(0) translate(4 136)">
<title>ElementData</title>
<!-- Node0 -->
<g id="node1" class="node">
<title>Node0</title>
<g id="a_node1"><a xlink:title="Stores information created by a flowElement based on flowData.">
<polygon fill="#bfbfbf" stroke="black" points="81.5,-112.5 81.5,-131.5 161.5,-131.5 161.5,-112.5 81.5,-112.5"/>
<text text-anchor="middle" x="121.5" y="-119.5" font-family="Helvetica,sans-Serif" font-size="10.00">ElementData</text>
</a>
</g>
</g>
<!-- Node1 -->
<g id="node2" class="node">
<title>Node1</title>
<g id="a_node2"><a xlink:href="class_aspect_data.html" target="_top" xlink:title="Extension of elementData which allows for a missing property service to be called when an accessed pr...">
<polygon fill="none" stroke="black" points="25,-56.5 25,-75.5 98,-75.5 98,-56.5 25,-56.5"/>
<text text-anchor="middle" x="61.5" y="-63.5" font-family="Helvetica,sans-Serif" font-size="10.00">AspectData</text>
</a>
</g>
</g>
<!-- Node0&#45;&gt;Node1 -->
<g id="edge1" class="edge">
<title>Node0&#45;&gt;Node1</title>
<path fill="none" stroke="midnightblue" d="M104.32,-105.54C93.62,-95.91 80.24,-83.87 71.32,-75.83"/>
<polygon fill="midnightblue" stroke="midnightblue" points="102.09,-108.24 111.86,-112.32 106.77,-103.03 102.09,-108.24"/>
</g>
<!-- Node3 -->
<g id="node4" class="node">
<title>Node3</title>
<g id="a_node4"><a xlink:href="class_element_data_dictionary.html" target="_top" xlink:title="A basic extension of elementData with dictionary object storage / lookup.">
<polygon fill="none" stroke="black" points="116,-56.5 116,-75.5 247,-75.5 247,-56.5 116,-56.5"/>
<text text-anchor="middle" x="181.5" y="-63.5" font-family="Helvetica,sans-Serif" font-size="10.00">ElementDataDictionary</text>
</a>
</g>
</g>
<!-- Node0&#45;&gt;Node3 -->
<g id="edge3" class="edge">
<title>Node0&#45;&gt;Node3</title>
<path fill="none" stroke="midnightblue" d="M138.68,-105.54C149.38,-95.91 162.76,-83.87 171.68,-75.83"/>
<polygon fill="midnightblue" stroke="midnightblue" points="136.23,-103.03 131.14,-112.32 140.91,-108.24 136.23,-103.03"/>
</g>
<!-- Node2 -->
<g id="node3" class="node">
<title>Node2</title>
<g id="a_node3"><a xlink:href="class_aspect_data_dictionary.html" target="_top" xlink:title="Extension of elementDataDictionary which stores a {key,value} dictionary of elements like elementData...">
<polygon fill="none" stroke="black" points="0,-0.5 0,-19.5 123,-19.5 123,-0.5 0,-0.5"/>
<text text-anchor="middle" x="61.5" y="-7.5" font-family="Helvetica,sans-Serif" font-size="10.00">AspectDataDictionary</text>
</a>
</g>
</g>
<!-- Node1&#45;&gt;Node2 -->
<g id="edge2" class="edge">
<title>Node1&#45;&gt;Node2</title>
<path fill="none" stroke="midnightblue" d="M61.5,-45.8C61.5,-36.91 61.5,-26.78 61.5,-19.75"/>
<polygon fill="midnightblue" stroke="midnightblue" points="58,-46.08 61.5,-56.08 65,-46.08 58,-46.08"/>
</g>
</g>
</svg>
