<?xml version="1.0" encoding="UTF-8" standalone="no"?>
<!DOCTYPE svg PUBLIC "-//W3C//DTD SVG 1.1//EN"
 "http://www.w3.org/Graphics/SVG/1.1/DTD/svg11.dtd">
<!-- Generated by graphviz version 2.43.0 (0)
 -->
<!-- Title: EvidenceKeyFilter Pages: 1 -->
<svg width="467pt" height="84pt"
 viewBox="0.00 0.00 466.50 84.00" xmlns="http://www.w3.org/2000/svg" xmlns:xlink="http://www.w3.org/1999/xlink">
<g id="graph0" class="graph" transform="scale(1 1) rotate(0) translate(4 80)">
<title>EvidenceKeyFilter</title>
<!-- Node0 -->
<g id="node1" class="node">
<title>Node0</title>
<g id="a_node1"><a xlink:title="An evidence key filter is added to a flowElement It tells the pipeline which evidence it is intereste...">
<polygon fill="#bfbfbf" stroke="black" points="169.5,-56.5 169.5,-75.5 273.5,-75.5 273.5,-56.5 169.5,-56.5"/>
<text text-anchor="middle" x="221.5" y="-63.5" font-family="Helvetica,sans-Serif" font-size="10.00">EvidenceKeyFilter</text>
</a>
</g>
</g>
<!-- Node1 -->
<g id="node2" class="node">
<title>Node1</title>
<g id="a_node2"><a xlink:href="class_basic_list_evidence_key_filter.html" target="_top" xlink:title="An instance of evidenceKeyFilter that uses a simple array of keys Evidence not using these keys is fi...">
<polygon fill="none" stroke="black" points="0,-0.5 0,-19.5 147,-19.5 147,-0.5 0,-0.5"/>
<text text-anchor="middle" x="73.5" y="-7.5" font-family="Helvetica,sans-Serif" font-size="10.00">BasicListEvidenceKeyFilter</text>
</a>
</g>
</g>
<!-- Node0&#45;&gt;Node1 -->
<g id="edge1" class="edge">
<title>Node0&#45;&gt;Node1</title>
<path fill="none" stroke="midnightblue" d="M188.35,-52.91C160.53,-42.75 121.48,-28.51 96.84,-19.52"/>
<polygon fill="midnightblue" stroke="midnightblue" points="187.46,-56.3 198.05,-56.44 189.85,-49.73 187.46,-56.3"/>
</g>
<!-- Node2 -->
<g id="node3" class="node">
<title>Node2</title>
<g id="a_node3"><a xlink:href="class_j_s_evidence_key_filter.html" target="_top" xlink:title="An instance of EvidenceKeyFilter which removes all but header and query evidence as that is all that ...">
<polygon fill="none" stroke="black" points="165,-0.5 165,-19.5 278,-19.5 278,-0.5 165,-0.5"/>
<text text-anchor="middle" x="221.5" y="-7.5" font-family="Helvetica,sans-Serif" font-size="10.00">JSEvidenceKeyFilter</text>
</a>
</g>
</g>
<!-- Node0&#45;&gt;Node2 -->
<g id="edge2" class="edge">
<title>Node0&#45;&gt;Node2</title>
<path fill="none" stroke="midnightblue" d="M221.5,-45.8C221.5,-36.91 221.5,-26.78 221.5,-19.75"/>
<polygon fill="midnightblue" stroke="midnightblue" points="218,-46.08 221.5,-56.08 225,-46.08 218,-46.08"/>
</g>
<!-- Node3 -->
<g id="node4" class="node">
<title>Node3</title>
<g id="a_node4"><a xlink:href="class_share_usage_evidence_key_filter.html" target="_top" xlink:title="The ShareUsageEvidenceKeyFilter filters out all evidence not needed by the 51Degrees ShareUsage servi...">
<polygon fill="none" stroke="black" points="296.5,-0.5 296.5,-19.5 458.5,-19.5 458.5,-0.5 296.5,-0.5"/>
<text text-anchor="middle" x="377.5" y="-7.5" font-family="Helvetica,sans-Serif" font-size="10.00">ShareUsageEvidenceKeyFilter</text>
</a>
</g>
</g>
<!-- Node0&#45;&gt;Node3 -->
<g id="edge3" class="edge">
<title>Node0&#45;&gt;Node3</title>
<path fill="none" stroke="midnightblue" d="M255.67,-53.17C285.04,-43 326.7,-28.59 352.9,-19.52"/>
<polygon fill="midnightblue" stroke="midnightblue" points="254.52,-49.86 246.22,-56.44 256.81,-56.48 254.52,-49.86"/>
</g>
</g>
</svg>
